#!OML:ASF H:\Pregnant\Project 1\Capture day 1\Session 1\femalepreg.ASF
:FULLY-SPECIFIED
:DEGREES
886
root 4.54796 15.7897 3.6353 -155.562 191.275 -180.292
lowerback -19.9737 2.48292 -8.7719
upperback -4.14107 5.47656 -5.59135
thorax 6.38574 2.53963 0.271142
lowerneck -19.5984 -0.859548 1.09526
upperneck 33.4361 -4.25561 6.94918
head 15.1499 -0.666542 1.92977
rclavicle -5.36719e-014 3.97569e-014
rhumerus -29.8936 28.7331 -100.277
rradius 36.134
rwrist -3.7862
rhand -9.37316 -15.6971
rfingers 7.12502
rthumb 16.5872 -45.0082
lclavicle -5.36719e-014 3.97569e-014
lhumerus -42.4805 -16.8903 80.3296
lradius 24.1686
lwrist 37.8926
lhand -27.0095 1.60914
lfingers 7.12502
lthumb -0.429293 31.5885
rfemur -26.6444 9.01117 22.6173
rtibia 57.849
rfoot 2.06333 1.99592
rtoes -22.3697
lfemur -43.2126 -8.87163 -21.366
ltibia 24.1878
lfoot -2.16785 -1.17719
ltoes -5.74847
887
root 4.54187 15.7943 3.73396 -155.734 191.283 -180.019
lowerback -19.6676 2.46735 -8.97608
upperback -4.09297 5.48099 -5.82643
thorax 6.28001 2.54388 0.115784
lowerneck -19.5203 -0.823294 1.17033
upperneck 33.3454 -4.23478 6.99762
head 15.0894 -0.645283 1.93758
rclavicle 1.43125e-014 3.02153e-014
rhumerus -29.5204 28.4539 -100.154
rradius 36.461
rwrist -3.85407
rhand -9.97037 -16.152
rfingers 7.12502
rthumb 16.0122 -45.5103
lclavicle 1.43125e-014 3.02153e-014
lhumerus -42.1093 -16.8609 80.0369
lradius 24.1681
lwrist 37.8351
lhand -27.2954 1.65093
lfingers 7.12502
lthumb -0.70538 31.6295
rfemur -27.9434 8.62264 22.2955
rtibia 59.4088
rfoot 1.1909 0.958779
rtoes -21.9079
lfemur -42.4356 -8.83836 -21.8849
ltibia 23.835
lfoot -2.42399 -1.29447
ltoes -5.62201
888
root 4.53464 15.7969 3.83157 -155.92 191.274 -179.796
lowerback -19.3475 2.46045 -9.12287
upperback -4.02873 5.48232 -6.04525
thorax 6.18813 2.5468 -0.0544199
lowerneck -19.4637 -0.791042 1.26614
upperneck 33.271 -4.22372 7.02915
head 15.0411 -0.627105 1.93338
rclavicle 1.39149e-014 -8.11041e-014
rhumerus -29.1803 28.1394 -100.038
rradius 36.868
rwrist -3.93834
rhand -10.8642 -16.6092
rfingers 7.12502
rthumb 15.1513 -46.0345
lclavicle 1.39149e-014 -8.11041e-014
lhumerus -41.6693 -16.8272 79.7425
lradius 24.1435
lwrist 37.7089
lhand -27.5679 1.6212
lfingers 7.12502
lthumb -0.968553 31.5987
rfemur -29.2332 8.27876 22.0456
rtibia 60.8581
rfoot 0.383513 -0.109737
rtoes -21.2498
lfemur -41.6969 -8.79174 -22.3413
ltibia 23.5853
lfoot -2.72518 -1.40332
ltoes -5.45972
889
root 4.52689 15.7978 3.92834 -156.111 191.244 -179.635
lowerback -19.0184 2.4708 -9.19118
upperback -3.9536 5.48898 -6.25411
thorax 6.10918 2.55304 -0.255616
lowerneck -19.4188 -0.76253 1.37525
upperneck 33.2072 -4.22574 7.06412
head 15.0013 -0.611776 1.92628
rclavicle 1.03368e-014 -2.38542e-014
rhumerus -28.876 27.761 -99.9345
rradius 37.3475
rwrist -4.0381
rhand -12.0156 -17.0237
rfingers 7.12502
rthumb 14.042 -46.5294
lclavicle 1.03368e-014 -2.38542e-014
lhumerus -41.1608 -16.818 79.4469
lradius 24.0922
lwrist 37.5254
lhand -27.8336 1.49781
lfingers 7.12502
lthumb -1.2252 31.474
rfemur -30.5115 7.98478 21.8733
rtibia 62.1829
rfoot -0.39801 -1.1431
rtoes -20.3654
lfemur -41.0145 -8.74156 -22.7181
ltibia 23.4562
lfoot -3.07461 -1.49419
ltoes -5.28525
890
root 4.519 15.7971 4.02469 -156.298 191.198 -179.535
lowerback -18.6927 2.49646 -9.18581
upperback -3.87225 5.50097 -6.44772
thorax 6.04377 2.56253 -0.478938
lowerneck -19.37 -0.744584 1.50928
upperneck 33.1507 -4.24937 7.08894
head 14.9645 -0.603826 1.90682
rclavicle 3.85642e-014 -7.95139e-015
rhumerus -28.613 27.319 -99.8359
rradius 37.8904
rwrist -4.14877
rhand -13.3906 -17.3888
rfingers 7.12502
rthumb 12.7166 -46.9816
lclavicle 3.85642e-014 -7.95139e-015
lhumerus -40.5889 -16.8211 79.1575
lradius 24.013
lwrist 37.2912
lhand -28.0861 1.31427
lfingers 7.12502
lthumb -1.46903 31.289
rfemur -31.7794 7.7441 21.771
rtibia 63.3748
rfoot -1.1959 -2.09824
rtoes -19.3891
lfemur -40.4009 -8.7012 -23.0098
ltibia 23.4537
lfoot -3.47437 -1.54932
ltoes -5.11248
891
root 4.51131 15.7949 4.12081 -156.467 191.131 -179.485
lowerback -18.3926 2.5189 -9.13089
upperback -3.77887 5.50179 -6.6082
thorax 6.00664 2.56593 -0.694435
lowerneck -19.3532 -0.719498 1.6088
upperneck 33.1136 -4.25539 7.12099
head 14.944 -0.59064 1.90044
rclavicle -4.05521e-014 0
rhumerus -28.3761 26.8569 -99.7183
rradius 38.488
rwrist -4.29116
rhand -14.9112 -17.7074
rfingers 7.12502
rthumb 11.2504 -47.3858
lclavicle -4.05521e-014 0
lhumerus -39.9439 -16.7834 78.8846
lradius 23.8999
lwrist 37.004
lhand -28.2993 1.13456
lfingers 7.12502
lthumb -1.67494 31.1077
rfemur -33.0509 7.54789 21.7206
rtibia 64.4325
rfoot -2.01246 -2.95146
rtoes -18.374
lfemur -39.8664 -8.68333 -23.227
ltibia 23.5661
lfoot -3.91292 -1.57276
ltoes -4.98673
892
root 4.50359 15.7913 4.21682 -156.605 191.068 -179.471
lowerback -18.1407 2.53719 -9.05293
upperback -3.67707 5.49814 -6.73387
thorax 6.00296 2.56582 -0.883312
lowerneck -19.3573 -0.689284 1.674
upperneck 33.0875 -4.24253 7.15131
head 14.9329 -0.573369 1.90323
rclavicle 4.37326e-015 3.18055e-014
rhumerus -28.1537 26.3733 -99.5712
rradius 39.1221
rwrist -4.46223
rhand -16.5166 -17.9399
rfingers 7.12502
rthumb 9.7018 -47.6964
lclavicle 4.37326e-015 3.18055e-014
lhumerus -39.2258 -16.6807 78.6283
lradius 23.7589
lwrist 36.6572
lhand -28.4792 0.994245
lfingers 7.12502
lthumb -1.84871 30.966
rfemur -34.3476 7.41182 21.6966
rtibia 65.3594
rfoot -2.85913 -3.69989
rtoes -17.4896
lfemur -39.4128 -8.68013 -23.3843
ltibia 23.7718
lfoot -4.38129 -1.55642
ltoes -4.92049
893
root 4.4958 15.7862 4.3129 -156.71 191.011 -179.472
lowerback -17.935 2.55394 -8.96891
upperback -3.58034 5.49623 -6.84369
thorax 6.01722 2.56596 -1.05584
lowerneck -19.3599 -0.657855 1.72072
upperneck 33.0724 -4.22231 7.18278
head 14.9265 -0.554892 1.91145
rclavicle 7.67309e-014 -1.27222e-013
rhumerus -27.9558 25.828 -99.4104
rradius 39.7791
rwrist -4.65949
rhand -18.1163 -18.0873
rfingers 7.12502
rthumb 8.15807 -47.9098
lclavicle 7.67309e-014 -1.27222e-013
lhumerus -38.4638 -16.5659 78.3978
lradius 23.6071
lwrist 36.298
lhand -28.642 0.889379
lfingers 7.12502
lthumb -2.00593 30.8597
rfemur -35.6771 7.32982 21.6696
rtibia 66.1594
rfoot -3.71927 -4.34655
rtoes -16.7541
lfemur -39.0306 -8.69345 -23.5104
ltibia 24.0423
lfoot -4.86704 -1.51081
ltoes -4.90852
894
root 4.48798 15.7798 4.40926 -156.788 190.961 -179.47
lowerback -17.7765 2.55633 -8.90669
upperback -3.48177 5.48409 -6.92303
thorax 6.05373 2.55955 -1.18352
lowerneck -19.3799 -0.61849 1.72208
upperneck 33.0763 -4.17504 7.21125
head 14.9321 -0.530255 1.932
rclavicle 1.90833e-014 -2.70347e-014
rhumerus -27.7698 25.2541 -99.216
rradius 40.449
rwrist -4.8855
rhand -19.6817 -18.1067
rfingers 7.12502
rthumb 6.64713 -47.9823
lclavicle 1.90833e-014 -2.70347e-014
lhumerus -37.6563 -16.3855 78.2025
lradius 23.4363
lwrist 35.9119
lhand -28.7962 0.763752
lfingers 7.12502
lthumb -2.15489 30.7326
rfemur -37.0328 7.29562 21.6224
rtibia 66.8346
rfoot -4.57704 -4.89613
rtoes -16.1792
lfemur -38.698 -8.72275 -23.6252
ltibia 24.353
lfoot -5.36473 -1.4427
ltoes -4.942
895
root 4.48014 15.772 4.50585 -156.848 190.917 -179.456
lowerback -17.651 2.5541 -8.86552
upperback -3.38769 5.47315 -6.99312
thorax 6.10004 2.55294 -1.28801
lowerneck -19.3938 -0.580876 1.72987
upperneck 33.0908 -4.12598 7.21956
head 14.9401 -0.506708 1.94364
rclavicle 9.14409e-015 9.54166e-015
rhumerus -27.5924 24.6141 -99.0042
rradius 41.1177
rwrist -5.14357
rhand -21.1352 -17.9991
rfingers 7.12502
rthumb 5.24378 -47.9142
lclavicle 9.14409e-015 9.54166e-015
lhumerus -36.8193 -16.1977 78.0406
lradius 23.2615
lwrist 35.5334
lhand -28.9449 0.635911
lfingers 7.12502
lthumb -2.29854 30.6033
rfemur -38.4063 7.30356 21.5425
rtibia 67.3857
rfoot -5.40947 -5.35691
rtoes -15.7221
lfemur -38.3956 -8.76533 -23.7459
ltibia 24.6822
lfoot -5.86692 -1.36208
ltoes -4.9978
896
root 4.47218 15.7631 4.60273 -156.9 190.875 -179.43
lowerback -17.5488 2.53524 -8.85752
upperback -3.2928 5.44749 -7.03367
thorax 6.15389 2.53789 -1.34463
lowerneck -19.4158 -0.537807 1.71129
upperneck 33.1249 -4.05639 7.21461
head 14.9578 -0.479026 1.95879
rclavicle -4.37326e-014 -3.18055e-015
rhumerus -27.4231 23.952 -98.7612
rradius 41.7857
rwrist -5.43377
rhand -22.4355 -17.7926
rfingers 7.12502
rthumb 3.98822 -47.735
lclavicle -4.37326e-014 -3.18055e-015
lhumerus -35.9649 -15.9592 77.9268
lradius 23.0869
lwrist 35.1685
lhand -29.082 0.527808
lfingers 7.12502
lthumb -2.43094 30.4937
rfemur -39.7807 7.35406 21.4323
rtibia 67.8111
rfoot -6.21155 -5.74062
rtoes -15.3851
lfemur -38.1063 -8.8133 -23.876
ltibia 25.0217
lfoot -6.37698 -1.27739
ltoes -5.03303
897
root 4.4641 15.7534 4.69995 -156.954 190.829 -179.398
lowerback -17.4556 2.50755 -8.87038
upperback -3.1975 5.41368 -7.05258
thorax 6.20897 2.51816 -1.36789
lowerneck -19.4285 -0.491628 1.67292
upperneck 33.1668 -3.9742 7.20749
head 14.9765 -0.448854 1.97905
rclavicle 3.1408e-014 2.38542e-014
rhumerus -27.2613 23.2409 -98.4915
rradius 42.4525
rwrist -5.75546
rhand -23.5215 -17.4919
rfingers 7.12502
rthumb 2.93944 -47.4514
lclavicle 3.1408e-014 2.38542e-014
lhumerus -35.0997 -15.7036 77.8625
lradius 22.9178
lwrist 34.836
lhand -29.2046 0.440162
lfingers 7.12502
lthumb -2.54933 30.4047
rfemur -41.1377 7.44275 21.2974
rtibia 68.1074
rfoot -6.98254 -6.05123
rtoes -15.1064
lfemur -37.815 -8.86322 -24.0135
ltibia 25.3676
lfoot -6.88737 -1.20105
ltoes -5.02466
898
root 4.45584 15.7425 4.79731 -157.014 190.774 -179.366
lowerback -17.3669 2.46977 -8.8975
upperback -3.09842 5.36827 -7.04477
thorax 6.26682 2.49201 -1.35678
lowerneck -19.4044 -0.453265 1.66204
upperneck 33.1965 -3.89587 7.15879
head 14.9792 -0.423898 1.97564
rclavicle 1.43125e-014 -2.70347e-014
rhumerus -27.0967 22.4976 -98.192
rradius 43.1083
rwrist -6.10172
rhand -24.3495 -17.1418
rfingers 7.12502
rthumb 2.13983 -47.1108
lclavicle 1.43125e-014 -2.70347e-014
lhumerus -34.2279 -15.4362 77.8543
lradius 22.7608
lwrist 34.5578
lhand -29.329 0.374713
lfingers 7.12502
lthumb -2.6694 30.3378
rfemur -42.4637 7.56364 21.1493
rtibia 68.2739
rfoot -7.71731 -6.30353
rtoes -14.8919
lfemur -37.5205 -8.91423 -24.1498
ltibia 25.7224
lfoot -7.39779 -1.13397
ltoes -4.95335
899
root 4.44741 15.731 4.89485 -157.086 190.703 -179.342
lowerback -17.2763 2.41545 -8.93891
upperback -2.99178 5.30135 -6.99788
thorax 6.32717 2.45439 -1.30033
lowerneck -19.3703 -0.409883 1.63748
upperneck 33.2283 -3.7964 7.08714
head 14.9788 -0.3952 1.96881
rclavicle 5.92378e-014 -6.36111e-014
rhumerus -26.9275 21.7535 -97.8568
rradius 43.7498
rwrist -6.483
rhand -24.9077 -16.7863
rfingers 7.12502
rthumb 1.60076 -46.7601
lclavicle 5.92378e-014 -6.36111e-014
lhumerus -33.3638 -15.1434 77.9138
lradius 22.6306
lwrist 34.3497
lhand -29.4767 0.333357
lfingers 7.12502
lthumb -2.81213 30.2946
rfemur -43.7449 7.71108 20.9969
rtibia 68.3099
rfoot -8.41848 -6.52122
rtoes -14.7771
lfemur -37.2162 -8.9708 -24.2771
ltibia 26.0865
lfoot -7.90365 -1.07445
ltoes -4.85509
